<svg xmlns="http://www.w3.org/2000/svg" xmlns:xlink="http://www.w3.org/1999/xlink" viewBox="0 0 216 113"><defs><style>.ac3f885d-6697-4204-b167-1dfd27497569{fill:#fcc00d;}.e95fb5b4-0cc5-4698-9037-e4ad229798c5{fill:#15453f;}.b2d2a320-dc17-44f4-be56-489ba51c415d{fill:none;}.a1c72642-a8fc-4bb8-8c0a-cdb7c54b3f4e{fill:#15443d;}.bdbeee62-c67f-4bbc-b690-913f35da354c{fill:#12352f;}.b1378824-05d3-407a-b122-0a05391b2b88{fill:#1d1d1b;}</style><symbol id="bf38f955-1e5d-42cf-80bb-6cd0ba4896aa" data-name="blv_logo" viewBox="0 0 216.21 112.68"><path class="ac3f885d-6697-4204-b167-1dfd27497569" d="M89.63,39.67a41.81,41.81,0,0,0-75,25.38A41.37,41.37,0,0,0,18.46,82.6c1.2-.3,2.46-.59,3.78-.85l5.2-1.08c1.21-.28,2.49-.48,3.72-.67l2-.32c3.5-.61,7.42-1.17,12.35-1.74,1.47-.19,3-.32,4.49-.44.68-.06,1.37-.11,2.05-.18,2.51-.22,4.62-.39,6.8-.47l2.33-.11c1,0,2-.11,2.93-.14V58.43L63.62,56,68,46.2l13-6.53Z"/><path class="e95fb5b4-0cc5-4698-9037-e4ad229798c5" d="M116.41,47.38l-11.73-5.72L93,47.33,88.26,58V80.73H99.08v-10h11.21V82.86l10.82,1.06V58Zm-8.57,8.11h-6.31V52.17a3.16,3.16,0,1,1,6.31,0Z"/><rect class="e95fb5b4-0cc5-4698-9037-e4ad229798c5" x="66.22" y="58.23" width="20.49" height="22.5"/><polygon class="e95fb5b4-0cc5-4698-9037-e4ad229798c5" points="84.26 45.76 92.19 41.8 88.54 41.8 80.96 45.76 84.26 45.76"/><polygon class="e95fb5b4-0cc5-4698-9037-e4ad229798c5" points="84.22 41.8 81.47 41.8 73.32 45.76 76.64 45.76 84.22 41.8"/><polygon class="e95fb5b4-0cc5-4698-9037-e4ad229798c5" points="92.19 45.76 100.34 41.8 96.67 41.8 88.73 45.76 92.19 45.76"/><polygon class="e95fb5b4-0cc5-4698-9037-e4ad229798c5" points="85.93 47.76 83.52 53.8 82.55 56.22 86.83 56.22 87.1 56.22 90.88 47.76 85.93 47.76"/><polygon class="e95fb5b4-0cc5-4698-9037-e4ad229798c5" points="78.36 47.76 75.3 55.43 74.97 56.22 79.96 56.22 80.71 54.35 83.34 47.76 78.36 47.76"/><polygon class="e95fb5b4-0cc5-4698-9037-e4ad229798c5" points="69.62 47.76 65.84 56.22 71.27 56.22 72.39 56.22 72.49 55.98 75.77 47.76 69.62 47.76"/><path class="e95fb5b4-0cc5-4698-9037-e4ad229798c5" d="M51.82,70c0,5.89,1.68,7.06,3.77,7.06S59.36,75.9,59.36,70s-3.77-18.23-3.77-18.23S51.82,64.13,51.82,70Z"/><polygon class="e95fb5b4-0cc5-4698-9037-e4ad229798c5" points="54.9 80.72 56.27 80.72 56.27 74.66 54.9 74.66 54.9 80.72"/><path class="e95fb5b4-0cc5-4698-9037-e4ad229798c5" d="M36.56,68.29c0,7.32,2.1,8.78,4.69,8.78s4.69-1.46,4.69-8.78-4.69-22.68-4.69-22.68S36.56,61,36.56,68.29Z"/><polygon class="e95fb5b4-0cc5-4698-9037-e4ad229798c5" points="40.56 80.72 41.94 80.72 41.94 74.66 40.56 74.66 40.56 80.72"/><path class="e95fb5b4-0cc5-4698-9037-e4ad229798c5" d="M138.41,88c-1.9-.63-4.22-1.29-6.91-2l-4.28-1.13-4.79-1.07c-3.34-.79-7-1.43-10.86-2.08-1.93-.37-3.93-.6-6-.91s-4.13-.59-6.26-.79l-1.57-.15-4.92-.49c-2.2-.19-4.43-.3-6.67-.44s-4.52-.24-6.79-.27-4.56-.15-6.85-.11l-6.85.09c-2.28,0-4.54.2-6.79.3s-4.47.27-6.67.46-4.37.34-6.49.62c-4.26.49-8.36,1-12.23,1.72-1.94.34-3.83.57-5.63,1l-5.23,1.09c-1.89.37-3.66.81-5.35,1.24-1.3.34-2.56.67-3.74,1-2.7.66-5,1.45-6.88,2C2.87,89.2.73,90,.73,90l6.2-.8c2-.24,4.36-.61,7.1-.93l4.35-.5.38,0c1.42-.17,2.89-.37,4.44-.5,3.37-.33,7-.73,10.86-1s7.92-.57,12.12-.87c2.1-.15,4.24-.19,6.41-.31s4.35-.21,6.56-.25l6.67-.16,6.72,0c2.24,0,4.49,0,6.72.06s4.46,0,6.67.14l6.56.23,3,.16,3.42.18c2.1.07,4.16.3,6.19.41s4,.22,5.93.43c3.85.4,7.5.64,10.86,1l4.83.52,4.35.54c2.73.36,5.13.6,7.09.91,3.93.56,6.2.81,6.2.81S142.21,89.24,138.41,88Z"/><path class="ac3f885d-6697-4204-b167-1dfd27497569" d="M207.19,72.05a112,112,0,0,0-40.95,12.87h8.17a118,118,0,0,1,32.78-9.12Z"/><path class="ac3f885d-6697-4204-b167-1dfd27497569" d="M182.89,84.92h24.3V79A115.18,115.18,0,0,0,182.89,84.92Z"/><path class="ac3f885d-6697-4204-b167-1dfd27497569" d="M207.19,68.84V65.67l-1.36.09-.23,0-2.41.23-.56.06-2.32.28-.4.05c-1.84.25-3.72.54-5.62.89l-.47.09q-1.23.23-2.46.48l-.45.1c-1.93.41-3.89.88-5.86,1.41l-.37.11c-.86.23-1.72.48-2.58.74l-.51.15c-2,.62-4.08,1.31-6.13,2.08l-.43.16c-.92.34-1.83.71-2.75,1.08l-.55.23q-3.1,1.29-6.23,2.82l-.74.37c-.87.44-1.73.89-2.6,1.35l-.53.28c-1,.56-2,1.13-3,1.73l-.68.41c-.81.48-1.61,1-2.41,1.49l-.85.53c-1,.66-2,1.32-3,2H160A114,114,0,0,1,207.19,68.84Z"/><line class="ac3f885d-6697-4204-b167-1dfd27497569" x1="198.34" y1="85.29" x2="197.35" y2="85.29"/><polygon class="b2d2a320-dc17-44f4-be56-489ba51c415d" points="154.89 40.07 157.74 40.07 156.58 38.62 153.14 38.62 149.63 38.62 148.47 40.07 151.31 40.07 154.89 40.07"/><rect class="b2d2a320-dc17-44f4-be56-489ba51c415d" x="148.56" y="50.53" width="9.08" height="9.08"/><path class="e95fb5b4-0cc5-4698-9037-e4ad229798c5" d="M154.89,40.07h-6.42l-6.41,8-5.89,37.18h11.77v-10a5.16,5.16,0,0,1,10.32,0v10H170l-5.88-37.18-6.41-8Zm2.75,19.55h-9.08V50.53h9.08Z"/><polygon class="e95fb5b4-0cc5-4698-9037-e4ad229798c5" points="156.38 30.99 156.38 31 165.94 38.62 169.38 38.62 159.73 28.32 156.38 30.98 156.38 30.99"/><polygon class="e95fb5b4-0cc5-4698-9037-e4ad229798c5" points="155.9 24.22 153.14 21.28 150.34 24.26 153.1 27.72 155.9 24.22"/><polygon class="e95fb5b4-0cc5-4698-9037-e4ad229798c5" points="156.58 38.62 153.11 34.27 153.1 34.27 153.09 34.27 149.63 38.62 153.14 38.62 156.58 38.62"/><polygon class="e95fb5b4-0cc5-4698-9037-e4ad229798c5" points="149.82 30.99 149.82 30.98 146.52 28.35 136.9 38.62 140.27 38.62 149.82 31 149.82 30.99"/><path class="e95fb5b4-0cc5-4698-9037-e4ad229798c5" d="M151.7,31a1.41,1.41,0,0,0,.41,1,1.43,1.43,0,0,0,2,0h0a1.4,1.4,0,0,0,0-2h0a1.43,1.43,0,0,0-1-.41,1.39,1.39,0,0,0-1,.41h0A1.39,1.39,0,0,0,151.7,31Z"/><polygon class="e95fb5b4-0cc5-4698-9037-e4ad229798c5" points="122.11 55.5 128.59 61.98 151.15 33.68 150.41 32.94 122.11 55.5"/><polygon class="e95fb5b4-0cc5-4698-9037-e4ad229798c5" points="128.59 0 122.11 6.48 150.41 29.04 151.15 28.3 128.59 0"/><polygon class="e95fb5b4-0cc5-4698-9037-e4ad229798c5" points="184.09 6.48 177.62 0 155.05 28.3 155.79 29.04 184.09 6.48"/><polygon class="e95fb5b4-0cc5-4698-9037-e4ad229798c5" points="177.62 61.98 184.09 55.5 155.79 32.94 155.05 33.68 177.62 61.98"/><path class="e95fb5b4-0cc5-4698-9037-e4ad229798c5" d="M82.84,84.22H205.37a10.84,10.84,0,0,1,10.84,10.84v2.11a0,0,0,0,1,0,0H72a0,0,0,0,1,0,0V95.06A10.84,10.84,0,0,1,82.84,84.22Z"/><path class="e95fb5b4-0cc5-4698-9037-e4ad229798c5" d="M10.84,84.22H133.37a10.84,10.84,0,0,1,10.84,10.84v2.11a0,0,0,0,1,0,0H0a0,0,0,0,1,0,0V95.06A10.84,10.84,0,0,1,10.84,84.22Z"/><path class="a1c72642-a8fc-4bb8-8c0a-cdb7c54b3f4e" d="M16.28,19v-3l1.12-.34c.68-.2,1.22-.38,1.64-.55v2.18a30.23,30.23,0,0,0,.28,3.89,8.4,8.4,0,0,0,.93-1.35,4.31,4.31,0,0,1,1.92.59,2.23,2.23,0,0,1,.89,1.25,8.39,8.39,0,0,1,.22,2.18,8.18,8.18,0,0,1-.25,2.3,4.43,4.43,0,0,1-.89,1.56,3.6,3.6,0,0,1-1.25,1L19,27.35a7.52,7.52,0,0,1-.34,1l-2.76.9c.24-1.23.38-2,.4-2.21s0-1.57,0-4.07c0-.41,0-1,0-1.81S16.28,19.56,16.28,19Zm3.51,2.76A5.65,5.65,0,0,1,19.13,23c0,.26,0,.6,0,1s0,.86,0,1.24a12.82,12.82,0,0,0,1.53.67,4.88,4.88,0,0,0,.06-.73A6.39,6.39,0,0,0,19.79,21.71Z"/><path class="a1c72642-a8fc-4bb8-8c0a-cdb7c54b3f4e" d="M24.72,16l1.66-.51,1.26-.41-.36,7.57-.12,3c.42.36.89.73,1.42,1.1v.07a16.78,16.78,0,0,0-1.7,2.24,2.74,2.74,0,0,1-1.76-1.22,4.75,4.75,0,0,1-.57-2.5c0-.42,0-1.1.05-2.05S24.67,20,24.72,16Z"/><path class="a1c72642-a8fc-4bb8-8c0a-cdb7c54b3f4e" d="M30.21,19.46a2.47,2.47,0,0,1,1.82.92,14.29,14.29,0,0,1,1.17,3.79c.18.79.35,1.45.51,2a13.15,13.15,0,0,0,.88-3.76A1.65,1.65,0,0,0,33.85,21q.66-.36,2-1.2A2.19,2.19,0,0,1,37,21.63a7.27,7.27,0,0,1-.11,1.16,3.91,3.91,0,0,1-.23.89,4.85,4.85,0,0,1-.63.86c-.35.41-.83.94-1.46,1.6,0,.13-.26.74-.61,1.82a10.19,10.19,0,0,0-2.47.85c-.34-1.69-.62-2.9-.85-3.62s-.42-1.2-.58-1.6a1.78,1.78,0,0,0-.83-.87C29.35,22.43,29.68,21.34,30.21,19.46Z"/><path class="a1c72642-a8fc-4bb8-8c0a-cdb7c54b3f4e" d="M45.06,17.53l1.59-2.18.69-.13L44.76,20l-1.52.33A18.94,18.94,0,0,1,45.06,17.53Zm1.49.33,1.54-2.74.63-.11L47,19.94l-1.34.21A7.36,7.36,0,0,1,46.55,17.86Z"/><path class="a1c72642-a8fc-4bb8-8c0a-cdb7c54b3f4e" d="M57,28.35,54,29c0-.22,0-.47,0-.77A23.7,23.7,0,0,0,53.8,25a10.29,10.29,0,0,1-1.17,1.85c-.63.85-1.1,1.51-1.4,2a10.21,10.21,0,0,1-1.44-.63,26.36,26.36,0,0,1-.22-3.48,6.29,6.29,0,0,1,.28-2,6.5,6.5,0,0,1,1-1.72,9,9,0,0,1,1.49-1.52,7.26,7.26,0,0,1,1.66.39c0-1.47.07-2.84.07-4.13,1.64-.37,2.64-.6,3-.69q-.3,4.13-.3,9c0,.79,0,1.56.07,2.32S56.91,27.74,57,28.35Zm-4.86-6.64L52.23,26a.39.39,0,0,1,.08-.1l.06-.08.17-.32.19-.37L54,22.37A6.34,6.34,0,0,0,52.14,21.71Z"/><path class="a1c72642-a8fc-4bb8-8c0a-cdb7c54b3f4e" d="M58.32,21.63l1.91-2,2.29.21a2.21,2.21,0,0,1,1.56.66,1.92,1.92,0,0,1,.48,1.25,6.59,6.59,0,0,1-.07.77c-.06.37-.13.92-.2,1.65a5.92,5.92,0,0,1-1.76.85,5.46,5.46,0,0,1-1.18.13,4,4,0,0,1-.53-.05c.56.83,1.1,1.25,1.63,1.25a2.23,2.23,0,0,0,1.68-.85h.07q-.86,3.2-3.15,3.2a3,3,0,0,1-1.72-.4,2.52,2.52,0,0,1-.82-1.16,9.06,9.06,0,0,1-.29-2.8l0-1.76Zm2.56.1-.22,2.5q.75,0,1.59-.06c0-.45,0-.66,0-.64a2,2,0,0,0-.38-1.32A1.37,1.37,0,0,0,60.88,21.73Z"/><path class="a1c72642-a8fc-4bb8-8c0a-cdb7c54b3f4e" d="M72.81,21.28l1.39-2.93a12.92,12.92,0,0,1,4.4-2.77,12,12,0,0,1,3.89-.79,5.06,5.06,0,0,1,2.51.68,4.62,4.62,0,0,1,1.82,1.73,4,4,0,0,1,.6,1.93,5.69,5.69,0,0,1-.66,2.36,7.26,7.26,0,0,1-2.71,2.72,13.65,13.65,0,0,1-5.14,1.93,15.53,15.53,0,0,1,4,4c-.11.48-.51,1.79-1.18,3.93-.43-.47-.88-1-1.36-1.46s-1-1-1.49-1.52-1.38-1.37-2.62-2.58C74.88,30.83,73.81,32,73,32c-.44,0-.93-.35-1.46-1a3.29,3.29,0,0,0-.55-.58c.12-.3.32-.76.6-1.36s.39-.89.52-1.22l2.33,1.45c.46-.64,1.05-1.56,1.77-2.75s1.37-2.33,2.14-3.75l2.34-4.41-.63,0a7.66,7.66,0,0,0-1.68.19,12.08,12.08,0,0,0-1.81.57A15.33,15.33,0,0,0,72.81,21.28Zm9.86-2.52A73.78,73.78,0,0,0,78.35,25c1.82-.23,3.76-1.73,5.81-4.48A3.35,3.35,0,0,0,82.67,18.76Z"/><path class="a1c72642-a8fc-4bb8-8c0a-cdb7c54b3f4e" d="M87.62,22.58l.23-1.28a13.26,13.26,0,0,0,3.92-1.6v1.81l0,.77c0,.1,0,.19,0,.27s0,.54,0,.94c0,.17,0,.32,0,.43l.06,1.8c0,.39,0,1.27.13,2.63-1.17.24-2.19.43-3,.55q.12-1.29.12-3.84l0-2.58a1.7,1.7,0,0,1-.77.17A2.54,2.54,0,0,1,87.62,22.58ZM90.14,15a1.4,1.4,0,0,1,1.1.53,2.18,2.18,0,0,1,0,2.68,1.43,1.43,0,0,1-1.1.55,1.41,1.41,0,0,1-1.1-.55,2.15,2.15,0,0,1,0-2.66A1.37,1.37,0,0,1,90.14,15Z"/><path class="a1c72642-a8fc-4bb8-8c0a-cdb7c54b3f4e" d="M94.38,20.41l3.24-.26c-.16,1-.27,1.61-.32,1.94s-.12.76-.19,1.32c-.1.89-.18,1.87-.24,2.95a27.87,27.87,0,0,1-.25,2.84,6.32,6.32,0,0,1-.51,1.52c-.28.55-.9,1.59-1.87,3.11a8.92,8.92,0,0,1-2-.43L92,31.25l.83-1.73,1,.59c0-.69.07-1.77.08-3.25S94,24,94.1,22.92A22,22,0,0,1,94.38,20.41Zm1.43-5.25a1.45,1.45,0,0,1,1.11.54,2.18,2.18,0,0,1,0,2.68,1.38,1.38,0,0,1-2.22,0,2,2,0,0,1-.46-1.33,2.07,2.07,0,0,1,.46-1.34A1.4,1.4,0,0,1,95.81,15.16Z"/><path class="a1c72642-a8fc-4bb8-8c0a-cdb7c54b3f4e" d="M98.25,20.43l1.9-.39c.4-.1.79-.2,1.14-.32.1.73.15,1.33.18,1.8a14,14,0,0,0,1.22-1,6.91,6.91,0,0,0,.83-.94,4.36,4.36,0,0,1,1.87,1.12,3.51,3.51,0,0,1,.7,2.47,7.3,7.3,0,0,1-2.4,5.4l-1.12-.6-.63-.32q-.76,3.87-1.07,6.17l-2.36-.25c0-.33.08-1,.16-2.07s.12-2,.15-2.81,0-1.48,0-2A22,22,0,0,0,98.25,20.43Zm3.22,2.6a8.47,8.47,0,0,1,.09,1.19v1.3a12.18,12.18,0,0,0,1.58.58A7.9,7.9,0,0,0,103.2,25a5.26,5.26,0,0,0-.68-3.2Q102,22.49,101.47,23Z"/><path class="a1c72642-a8fc-4bb8-8c0a-cdb7c54b3f4e" d="M106.92,20l1.73-4.94,1.34-.19a6.52,6.52,0,0,1-.81,2.11l-1.64,2.93Zm1.4-.24,2.57-4.7,1.54-.36a13.12,13.12,0,0,1-1,1.57L110.21,18,109,19.65Z"/><path class="bdbeee62-c67f-4bbc-b690-913f35da354c" d="M4,109.77H2.23L.48,104H.07v-1.78H3V104H2.56l.82,3.19L4.24,104H3.79v-1.78H6V104H5.6Z"/><path class="bdbeee62-c67f-4bbc-b690-913f35da354c" d="M11.69,109.71H6.44v-1.79h.43V104H6.43v-1.78h5.26v2.39H10.25V104H9v1.15h1.08v1.52H9v1.23h1.25v-.6h1.44Z"/><path class="bdbeee62-c67f-4bbc-b690-913f35da354c" d="M15.49,109.71h-3v-1.79H13V104H12.5v-1.78h3c.27,0,.52,0,.75,0l.59,0a3,3,0,0,1,.45.09,1.64,1.64,0,0,1,.94.73,2.46,2.46,0,0,1,.36,1.34,2.38,2.38,0,0,1-.22,1,1.6,1.6,0,0,1-.58.69l.76,1.71h.39v1.79H17l-1.2-3h-.67v1.26h.41Zm-.41-5.84v1.43h.24a3,3,0,0,0,.63,0,.52.52,0,0,0,.3-.21.81.81,0,0,0,.12-.46.76.76,0,0,0-.12-.46.52.52,0,0,0-.31-.22,4.59,4.59,0,0,0-.67,0Z"/><path class="bdbeee62-c67f-4bbc-b690-913f35da354c" d="M24.68,109.71H19.43v-1.79h.43V104h-.44v-1.78h5.26v2.39H23.24V104H22v1.15h1.08v1.52H22v1.23h1.25v-.6h1.44Z"/><path class="bdbeee62-c67f-4bbc-b690-913f35da354c" d="M27.66,109.71H25.4v-1.79h.49V104H25.4v-1.78H28l2,3.9V104h-.45v-1.78h2.22V104H31.3v5.78H29.49l-2.31-4.51v2.63h.48Z"/><path class="bdbeee62-c67f-4bbc-b690-913f35da354c" d="M35.48,109.71H32.34v-1.79h.51V104h-.51v-1.78h3.14V104H35v3.9h.51Z"/><path class="bdbeee62-c67f-4bbc-b690-913f35da354c" d="M40.29,107.14h-.56v-1.42h2.46a9.92,9.92,0,0,1-.13,1.82,3.35,3.35,0,0,1-.51,1.16,2.45,2.45,0,0,1-.93.86,2.64,2.64,0,0,1-1.17.27,3.42,3.42,0,0,1-1.69-.42,2.75,2.75,0,0,1-1.18-1.36,5,5,0,0,1-.42-2.08,4.41,4.41,0,0,1,.85-2.82,2.51,2.51,0,0,1,2.05-1.06,2,2,0,0,1,1.6.67v-.52H42v2.61H40.66a1.67,1.67,0,0,0-.46-.73.91.91,0,0,0-.65-.25.79.79,0,0,0-.76.46,3.9,3.9,0,0,0-.25,1.7,3.71,3.71,0,0,0,.26,1.67.8.8,0,0,0,.74.44C40,108.14,40.29,107.81,40.29,107.14Z"/><path class="bdbeee62-c67f-4bbc-b690-913f35da354c" d="M46,109.71H42.89v-1.79h.5V104h-.5v-1.78H46V104h-.5v3.9H46Z"/><path class="bdbeee62-c67f-4bbc-b690-913f35da354c" d="M48.83,109.71H46.58v-1.79h.48V104h-.48v-1.78h2.6l2,3.9V104h-.44v-1.78H53V104h-.47v5.78H50.66l-2.31-4.51v2.63h.48Z"/><path class="bdbeee62-c67f-4bbc-b690-913f35da354c" d="M57.75,107.14h-.56v-1.42h2.46a9.1,9.1,0,0,1-.13,1.82A3.35,3.35,0,0,1,59,108.7a2.45,2.45,0,0,1-.93.86,2.58,2.58,0,0,1-1.17.27,3.44,3.44,0,0,1-1.69-.42A2.75,2.75,0,0,1,54,108.05a5,5,0,0,1-.42-2.08,4.41,4.41,0,0,1,.85-2.82,2.52,2.52,0,0,1,2.05-1.06,2,2,0,0,1,1.6.67v-.52h1.32v2.61H58.12a1.76,1.76,0,0,0-.45-.73,1,1,0,0,0-.65-.25.81.81,0,0,0-.77.46A4.1,4.1,0,0,0,56,106a3.75,3.75,0,0,0,.25,1.67.81.81,0,0,0,.75.44C57.5,108.14,57.75,107.81,57.75,107.14Z"/><path class="bdbeee62-c67f-4bbc-b690-913f35da354c" d="M65.23,109.77H63.51L61.76,104h-.41v-1.78h3V104h-.47l.82,3.19.86-3.19h-.45v-1.78h2.22V104h-.41Z"/><path class="bdbeee62-c67f-4bbc-b690-913f35da354c" d="M69.26,109.71H67.08v-1.79h.42l1-3.9h-.44v-1.78h4V104H71.6l1.05,3.9h.4v1.79H70.18v-1.64h.49l-.21-.94H69.05l-.24.94h.45Zm.52-5.58-.52,2.07h1Z"/><path class="bdbeee62-c67f-4bbc-b690-913f35da354c" d="M75.67,109.71H73.41v-1.79h.48V104h-.48v-1.78H76l2,3.9V104h-.44v-1.78h2.22V104h-.48v5.78H77.5l-2.32-4.51v2.63h.49Z"/><path class="bdbeee62-c67f-4bbc-b690-913f35da354c" d="M87.7,109.71H82.45v-1.79h.43V104h-.44v-1.78H87.7v2.39H86.25V104H85v1.15h1.08v1.52H85v1.23h1.24v-.6H87.7Z"/><path class="bdbeee62-c67f-4bbc-b690-913f35da354c" d="M91.58,109.71H88.44v-1.79H89V104h-.51v-1.78h3.14V104h-.5v3.9h.5Z"/><path class="bdbeee62-c67f-4bbc-b690-913f35da354c" d="M96.39,107.14h-.56v-1.42h2.46a9.1,9.1,0,0,1-.13,1.82,3.35,3.35,0,0,1-.51,1.16,2.45,2.45,0,0,1-.93.86,2.64,2.64,0,0,1-1.17.27,3.44,3.44,0,0,1-1.69-.42,2.75,2.75,0,0,1-1.18-1.36,5,5,0,0,1-.42-2.08,4.41,4.41,0,0,1,.85-2.82,2.52,2.52,0,0,1,2-1.06,2,2,0,0,1,1.6.67v-.52h1.32v2.61H96.76a1.76,1.76,0,0,0-.45-.73,1,1,0,0,0-.66-.25.8.8,0,0,0-.76.46,4.1,4.1,0,0,0-.24,1.7,3.75,3.75,0,0,0,.25,1.67.81.81,0,0,0,.75.44C96.14,108.14,96.39,107.81,96.39,107.14Z"/><path class="bdbeee62-c67f-4bbc-b690-913f35da354c" d="M104.32,109.71H99.07v-1.79h.43V104h-.44v-1.78h5.26v2.39h-1.44V104h-1.25v1.15h1.08v1.52h-1.08v1.23h1.25v-.6h1.44Z"/><path class="bdbeee62-c67f-4bbc-b690-913f35da354c" d="M107.3,109.71H105v-1.79h.49V104H105v-1.78h2.61l2,3.9V104h-.45v-1.78h2.22V104h-.48v5.78h-1.81l-2.32-4.51v2.63h.49Z"/><path class="bdbeee62-c67f-4bbc-b690-913f35da354c" d="M113.84,109.71h-2.18v-1.79h.42l1-3.9h-.44v-1.78h4V104h-.45l1,3.9h.41v1.79h-2.87v-1.64h.48l-.21-.94h-1.41l-.24.94h.45Zm.52-5.58-.52,2.07h1Z"/><path class="bdbeee62-c67f-4bbc-b690-913f35da354c" d="M121.07,109.71h-3v-1.79h.45V104h-.45v-1.78h3c.27,0,.52,0,.75,0l.59,0a3,3,0,0,1,.45.09,1.65,1.65,0,0,1,.93.73,2.39,2.39,0,0,1,.37,1.34,2.53,2.53,0,0,1-.22,1,1.6,1.6,0,0,1-.58.69l.76,1.71h.39v1.79h-2l-1.2-3h-.68v1.26h.42Zm-.42-5.84v1.43h.24a3,3,0,0,0,.63,0,.58.58,0,0,0,.31-.21.81.81,0,0,0,.12-.46.76.76,0,0,0-.12-.46.54.54,0,0,0-.32-.22,4.32,4.32,0,0,0-.66,0Z"/><path class="bdbeee62-c67f-4bbc-b690-913f35da354c" d="M130.26,109.71H125v-1.79h.43V104H125v-1.78h5.26v2.39h-1.45V104h-1.25v1.15h1.09v1.52h-1.09v1.23h1.25v-.6h1.45Z"/><path class="bdbeee62-c67f-4bbc-b690-913f35da354c" d="M133.24,109.71H131v-1.79h.48V104H131v-1.78h2.61l2,3.9V104h-.45v-1.78h2.22V104h-.48v5.78h-1.81l-2.32-4.51v2.63h.49Z"/><path class="bdbeee62-c67f-4bbc-b690-913f35da354c" d="M143,109.71h-3v-1.79h.45V104H140v-1.78h3c.27,0,.52,0,.75,0l.59,0a3,3,0,0,1,.45.09,1.67,1.67,0,0,1,.94.73,2.46,2.46,0,0,1,.36,1.34,2.38,2.38,0,0,1-.22,1,1.6,1.6,0,0,1-.58.69l.76,1.71h.39v1.79h-2l-1.2-3h-.67v1.26H143Zm-.41-5.84v1.43h.23a3.07,3.07,0,0,0,.64,0,.52.52,0,0,0,.3-.21.81.81,0,0,0,.12-.46.76.76,0,0,0-.12-.46.51.51,0,0,0-.32-.22,4.32,4.32,0,0,0-.66,0Z"/><path class="bdbeee62-c67f-4bbc-b690-913f35da354c" d="M152.19,109.71h-5.25v-1.79h.43V104h-.44v-1.78h5.26v2.39h-1.45V104h-1.25v1.15h1.09v1.52h-1.09v1.23h1.25v-.6h1.45Z"/><path class="bdbeee62-c67f-4bbc-b690-913f35da354c" d="M154.25,109.71H153v-2.4h1.24c.15.65.43,1,.84,1s.44-.16.44-.48a.6.6,0,0,0-.15-.42,4.38,4.38,0,0,0-.7-.51,5.85,5.85,0,0,1-1-.71,2.3,2.3,0,0,1-.51-.76,2.61,2.61,0,0,1-.21-1.06,2.48,2.48,0,0,1,.5-1.63,1.52,1.52,0,0,1,1.22-.58,1.58,1.58,0,0,1,1.22.56v-.46h1.25v2.12h-1.23c-.15-.58-.42-.88-.8-.88s-.4.16-.4.47a.45.45,0,0,0,.11.34,6,6,0,0,0,.72.52,9.29,9.29,0,0,1,1.08.8,1.53,1.53,0,0,1,.28.35,2.17,2.17,0,0,1,.24.45,2.9,2.9,0,0,1,.22,1.14,2.48,2.48,0,0,1-.51,1.59,1.6,1.6,0,0,1-1.3.66,1.83,1.83,0,0,1-1.32-.58Z"/><path class="bdbeee62-c67f-4bbc-b690-913f35da354c" d="M158.11,106a4.93,4.93,0,0,1,.34-1.81,3.45,3.45,0,0,1,1-1.46,3,3,0,0,1,.51-.34,3.47,3.47,0,0,1,.57-.19,3.42,3.42,0,0,1,.65-.06,2.62,2.62,0,0,1,2.29,1.17,4.59,4.59,0,0,1,.61,1.26,4.8,4.8,0,0,1,.21,1.43,4.51,4.51,0,0,1-.84,2.72,2.67,2.67,0,0,1-2.27,1.16,2.75,2.75,0,0,1-2.24-1.09A4.36,4.36,0,0,1,158.11,106Zm2.39,0a5.13,5.13,0,0,0,.18,1.68.56.56,0,0,0,.53.44.58.58,0,0,0,.54-.42,5.19,5.19,0,0,0,.18-1.7,5.1,5.1,0,0,0-.18-1.67.56.56,0,0,0-.54-.44.57.57,0,0,0-.53.42A5.12,5.12,0,0,0,160.5,106Z"/><path class="bdbeee62-c67f-4bbc-b690-913f35da354c" d="M168.06,109.71h-3v-1.79h.45V104h-.45v-1.78h3c.27,0,.52,0,.75,0l.59,0a3,3,0,0,1,.45.09,1.67,1.67,0,0,1,.94.73,2.46,2.46,0,0,1,.36,1.34,2.38,2.38,0,0,1-.22,1,1.6,1.6,0,0,1-.58.69l.76,1.71h.39v1.79h-2l-1.2-3h-.67v1.26h.41Zm-.41-5.84v1.43h.23a3.13,3.13,0,0,0,.64,0,.59.59,0,0,0,.3-.21.81.81,0,0,0,.12-.46.76.76,0,0,0-.12-.46.54.54,0,0,0-.32-.22,4.32,4.32,0,0,0-.66,0Z"/><path class="bdbeee62-c67f-4bbc-b690-913f35da354c" d="M176,109.71h-3.09v-1.79h.47V104h-.63v1.36h-1v-3.14h5.45v3.14h-1V104h-.63v3.9H176Z"/><path class="bdbeee62-c67f-4bbc-b690-913f35da354c" d="M182.5,109.71h-2.56v-1.79h.44V104h-.44v-1.78h2.64a5.93,5.93,0,0,1,1.47.15,2.57,2.57,0,0,1,1.08.61,3.32,3.32,0,0,1,.79,1.28,5.31,5.31,0,0,1,.22.83,5.45,5.45,0,0,1,.07.92,5.08,5.08,0,0,1-.3,1.78,3.16,3.16,0,0,1-.77,1.22,2.25,2.25,0,0,1-1,.55A8.16,8.16,0,0,1,182.5,109.71Zm0-5.69v3.9h.2a.94.94,0,0,0,1-.54,3.61,3.61,0,0,0,.22-1.37,5.41,5.41,0,0,0-.09-1,1.46,1.46,0,0,0-.35-.74,1.16,1.16,0,0,0-.88-.27Z"/><path class="bdbeee62-c67f-4bbc-b690-913f35da354c" d="M192.23,109.71H187v-1.79h.43V104H187v-1.78h5.25v2.39h-1.44V104h-1.25v1.15h1.09v1.52h-1.09v1.23h1.25v-.6h1.44Z"/><path class="bdbeee62-c67f-4bbc-b690-913f35da354c" d="M198.06,109.71h-3v-1.79h.45V104h-.45v-1.78h3c.27,0,.52,0,.75,0l.59,0a3,3,0,0,1,.45.09,1.65,1.65,0,0,1,.93.73,2.39,2.39,0,0,1,.37,1.34,2.53,2.53,0,0,1-.22,1,1.67,1.67,0,0,1-.58.69l.75,1.71h.4v1.79h-2l-1.2-3h-.68v1.26h.42Zm-.42-5.84v1.43h.24a3,3,0,0,0,.63,0,.52.52,0,0,0,.3-.21.74.74,0,0,0,.13-.46.7.7,0,0,0-.13-.46.49.49,0,0,0-.31-.22,4.32,4.32,0,0,0-.66,0Z"/><path class="bdbeee62-c67f-4bbc-b690-913f35da354c" d="M205.05,109.71h-3.13v-1.79h.5V104h-.5v-1.78h3.13V104h-.5v3.9h.5Z"/><path class="bdbeee62-c67f-4bbc-b690-913f35da354c" d="M205.5,111.91v-1.83a.74.74,0,0,0,.24,0,.31.31,0,0,0,.32-.24,6.17,6.17,0,0,0,.07-1.16V104h-.51v-1.78h3.11V104h-.48v4.38c0,.82,0,1.39,0,1.72a2.66,2.66,0,0,1-.28,1,1.66,1.66,0,0,1-.6.7,1.93,1.93,0,0,1-1,.23A3.44,3.44,0,0,1,205.5,111.91Z"/><path class="bdbeee62-c67f-4bbc-b690-913f35da354c" d="M212.54,109.71h-3.21v-1.79h.53V104h-.53v-1.78h3.37a3.66,3.66,0,0,1,1.7.3,1.91,1.91,0,0,1,.79.85,2.71,2.71,0,0,1,.25,1.18,2.62,2.62,0,0,1-.3,1.31,1.81,1.81,0,0,1-.79.76,3.79,3.79,0,0,1-1.5.23H212v1h.55Zm-.55-5.84v1.41h.41a1.19,1.19,0,0,0,.64-.14.68.68,0,0,0,.18-.55.87.87,0,0,0-.1-.44.45.45,0,0,0-.26-.23,2.22,2.22,0,0,0-.54,0Z"/><path class="b1378824-05d3-407a-b122-0a05391b2b88" d="M34.47,35.58H34V31.29h.53v1.53a1,1,0,0,1,.85-.42,1.25,1.25,0,0,1,.54.12,1,1,0,0,1,.42.32,1.53,1.53,0,0,1,.26.51,2.09,2.09,0,0,1-.3,1.87,1.23,1.23,0,0,1-1,.43,1,1,0,0,1-.86-.46Zm0-1.58a1.63,1.63,0,0,0,.15.81.76.76,0,0,0,1.28.11,1.78,1.78,0,0,0,0-1.8.75.75,0,0,0-1.19,0A1.37,1.37,0,0,0,34.46,34Z"/><path class="b1378824-05d3-407a-b122-0a05391b2b88" d="M37.31,35.58V31.29h.52v4.29Z"/><path class="b1378824-05d3-407a-b122-0a05391b2b88" d="M39.52,35.58l-1.19-3.11h.56l.67,1.86c.07.2.14.41.2.63,0-.16.11-.36.19-.59l.69-1.9h.55L40,35.58Z"/><path class="b1378824-05d3-407a-b122-0a05391b2b88" d="M43.67,35.58v-.39a1,1,0,0,1-.87.46,1.23,1.23,0,0,1-.68-.2,1.4,1.4,0,0,1-.49-.58,2,2,0,0,1-.17-.84,2.15,2.15,0,0,1,.16-.85,1.27,1.27,0,0,1,.46-.58,1.3,1.3,0,0,1,.7-.2,1,1,0,0,1,.85.43V31.29h.53v4.29ZM42,34a1.39,1.39,0,0,0,.25.89.76.76,0,0,0,1.19,0,1.33,1.33,0,0,0,.24-.87,1.4,1.4,0,0,0-.25-.93.74.74,0,0,0-.6-.3.73.73,0,0,0-.59.28A1.42,1.42,0,0,0,42,34Z"/><path class="b1378824-05d3-407a-b122-0a05391b2b88" d="M47.12,34.58l.54.07a1.31,1.31,0,0,1-.47.74,1.5,1.5,0,0,1-.9.26,1.43,1.43,0,0,1-1.08-.42,1.67,1.67,0,0,1-.4-1.18,1.73,1.73,0,0,1,.41-1.22,1.47,1.47,0,0,1,2.07,0,1.73,1.73,0,0,1,.39,1.2v.14H45.36a1.2,1.2,0,0,0,.29.79.86.86,0,0,0,.65.27.79.79,0,0,0,.49-.15A1.06,1.06,0,0,0,47.12,34.58Zm-1.73-.85h1.73a1,1,0,0,0-.2-.59.77.77,0,0,0-.65-.31.82.82,0,0,0-.61.25A1,1,0,0,0,45.39,33.73Z"/><path class="b1378824-05d3-407a-b122-0a05391b2b88" d="M48.32,35.58V32.47h.47v.47a1.41,1.41,0,0,1,.34-.43.51.51,0,0,1,.34-.11,1,1,0,0,1,.54.17l-.18.49a.74.74,0,0,0-.39-.12.51.51,0,0,0-.31.11.56.56,0,0,0-.2.29,2.31,2.31,0,0,0-.08.61v1.63Z"/><path class="b1378824-05d3-407a-b122-0a05391b2b88" d="M50.33,31.89v-.6h.52v.6Zm0,3.69V32.47h.52v3.11Z"/><path class="b1378824-05d3-407a-b122-0a05391b2b88" d="M51,36.79l.09-.45a1,1,0,0,0,.25,0,.26.26,0,0,0,.24-.11,1,1,0,0,0,.08-.53V32.47h.53v3.28a1.54,1.54,0,0,1-.15.8.69.69,0,0,1-.63.29A1.4,1.4,0,0,1,51,36.79Zm.66-4.89v-.61h.53v.61Z"/><path class="b1378824-05d3-407a-b122-0a05391b2b88" d="M53,36.77v-4.3h.48v.4a1.25,1.25,0,0,1,.38-.35,1.08,1.08,0,0,1,.52-.12,1.31,1.31,0,0,1,.71.2,1.34,1.34,0,0,1,.46.58,2.21,2.21,0,0,1,.15.82,2.13,2.13,0,0,1-.17.86,1.32,1.32,0,0,1-.5.59,1.34,1.34,0,0,1-.69.2,1,1,0,0,1-.81-.39v1.51ZM53.47,34a1.37,1.37,0,0,0,.24.89.75.75,0,0,0,.59.29.77.77,0,0,0,.6-.3,1.79,1.79,0,0,0,0-1.81.75.75,0,0,0-.59-.3.76.76,0,0,0-.59.32A1.35,1.35,0,0,0,53.47,34Z"/><path class="b1378824-05d3-407a-b122-0a05391b2b88" d="M56.48,35.58V35h.6v.6Z"/><path class="b1378824-05d3-407a-b122-0a05391b2b88" d="M58,35.58V32.47h.48v.44a1.12,1.12,0,0,1,1-.51,1.27,1.27,0,0,1,.52.1.89.89,0,0,1,.35.27,1,1,0,0,1,.16.39,2.81,2.81,0,0,1,0,.51v1.91H60V33.69a1.4,1.4,0,0,0-.06-.48.5.5,0,0,0-.22-.26.69.69,0,0,0-.36-.09.84.84,0,0,0-.58.21,1,1,0,0,0-.25.81v1.7Z"/><path class="b1378824-05d3-407a-b122-0a05391b2b88" d="M61.32,35.58V31.29h.53v4.29Z"/><path class="e95fb5b4-0cc5-4698-9037-e4ad229798c5" d="M195.9,57.2c0,5.88-1.69,7.06-3.77,7.06s-3.77-1.18-3.77-7.06S192.13,39,192.13,39,195.9,51.31,195.9,57.2Z"/><rect class="e95fb5b4-0cc5-4698-9037-e4ad229798c5" x="191.44" y="61.84" width="1.38" height="6.07"/><path class="e95fb5b4-0cc5-4698-9037-e4ad229798c5" d="M211.16,52.79c0,7.32-2.1,8.78-4.69,8.78s-4.69-1.46-4.69-8.78,4.69-22.68,4.69-22.68S211.16,45.47,211.16,52.79Z"/><rect class="e95fb5b4-0cc5-4698-9037-e4ad229798c5" x="205.78" y="59.16" width="1.38" height="6.07"/></symbol></defs><title>blv_logo_outlined</title><g id="a372da28-7f6b-4704-8edc-2b18b66bddc7" data-name="Layer 2"><g id="ee079238-10d2-4585-a813-01e6a7176f9c" data-name="Laag 1"><use width="216.21" height="112.68" transform="translate(0)" xlink:href="#bf38f955-1e5d-42cf-80bb-6cd0ba4896aa"/></g></g></svg>